<?xml version="1.0" encoding="utf-8"?>
<!-- Generator: Adobe Illustrator 26.0.1, SVG Export Plug-In . SVG Version: 6.00 Build 0)  -->
<svg version="1.1" id="Layer_1" xmlns="http://www.w3.org/2000/svg" xmlns:xlink="http://www.w3.org/1999/xlink" x="0px" y="0px"
	 viewBox="0 0 441.8 48" style="enable-background:new 0 0 441.8 48;" xml:space="preserve">
<style type="text/css">
	.st0{fill:#242938;}
	.st1{fill:#81CD39;}
	.st2{fill:url(#SVGID_1_);}
	.st3{fill:url(#SVGID_00000152244751199953057410000018168656945513042848_);}
	.st4{fill:#F0DB4F;}
	.st5{fill:#323330;}
	.st6{fill:#007ACC;}
	.st7{fill:#FFFFFF;}
	.st8{fill:#FFFFFF;filter:url(#Adobe_OpacityMaskFilter);}
	.st9{mask:url(#mask0_147_896_00000119812006947693624220000017819382819547142078_);}
	.st10{fill:url(#SVGID_00000181805914032278617460000008611109596302326412_);}
	.st11{fill:#FFA000;}
	.st12{fill:none;}
	.st13{fill:#F57C00;}
	.st14{fill:#FFCA28;}
	.st15{fill:#FFFFFF;fill-opacity:0.2;}
	.st16{opacity:0.2;fill:#A52714;enable-background:new    ;}
	.st17{fill:url(#SVGID_00000137813530513006015410000000227758361225322630_);}
	.st18{fill:#023430;}
	.st19{fill:#10AA50;}
	.st20{fill:#B8C4C2;}
	.st21{fill:#12924F;}
</style>
<g transform="translate(0, 0)">
	<path class="st0" d="M11.2,0h25.5C43,0,48,5,48,11.2v25.5C48,43,43,48,36.8,48H11.2C5,48,0,43,0,36.8V11.2C0,5,5,0,11.2,0z"/>
	<path class="st1" d="M22.5,5.8c0.9-0.5,2.1-0.5,3,0c4.6,2.6,9.3,5.2,13.9,7.9c0.9,0.5,1.5,1.5,1.4,2.5v15.8c0,1-0.6,2-1.6,2.5
		c-4.6,2.6-9.2,5.2-13.9,7.8c-0.9,0.5-2.2,0.5-3.1-0.1c-1.4-0.8-2.8-1.6-4.2-2.4c-0.3-0.2-0.6-0.3-0.8-0.6c0.2-0.2,0.5-0.3,0.7-0.4
		c0.6-0.2,1.1-0.5,1.6-0.8c0.1-0.1,0.3-0.1,0.4,0c1.2,0.7,2.4,1.4,3.5,2.1c0.3,0.1,0.5,0,0.7-0.2c4.5-2.6,9.1-5.1,13.6-7.7
		c0.2-0.1,0.3-0.3,0.2-0.4c0-5.2,0-10.4,0-15.6c0-0.2-0.1-0.4-0.3-0.5c-4.6-2.6-9.2-5.2-13.8-7.8c-0.2-0.1-0.4-0.1-0.5,0
		c-4.6,2.6-9.2,5.2-13.8,7.8c-0.2,0.1-0.3,0.3-0.3,0.5c0,5.2,0,10.4,0,15.6c0,0.2,0.1,0.4,0.3,0.4c1.2,0.7,2.5,1.4,3.7,2.1
		c0.7,0.4,1.5,0.6,2.3,0.3c0.7-0.2,1.1-0.9,1.1-1.6c0-5.2,0-10.3,0-15.5c0-0.2,0.2-0.4,0.4-0.4c0.6,0,1.2,0,1.8,0
		c0.2,0,0.4,0.2,0.4,0.5c0,5.2,0,10.4,0,15.6c0,1.4-0.6,2.9-1.9,3.6c-1.6,0.8-3.5,0.6-5.1-0.1c-1.4-0.7-2.6-1.5-4-2.2
		C7.8,34,7.1,33,7.1,31.9V16.2c0-1,0.6-2,1.5-2.5C13.2,11.1,17.9,8.4,22.5,5.8z"/>
	<path class="st1" d="M26.5,16.8c2-0.1,4.2-0.1,6,0.9c1.4,0.8,2.2,2.4,2.2,3.9c0,0.2-0.3,0.3-0.5,0.3c-0.6,0-1.2,0-1.8,0
		c-0.2,0-0.4-0.2-0.4-0.4c-0.2-0.7-0.6-1.5-1.3-1.8c-1.1-0.5-2.3-0.5-3.5-0.5c-0.9,0-1.8,0.1-2.5,0.6c-0.6,0.4-0.7,1.2-0.5,1.8
		c0.2,0.4,0.7,0.6,1.1,0.7c2.4,0.6,5,0.6,7.4,1.4c1,0.3,2,1,2.3,2c0.4,1.4,0.2,3-0.7,4.1c-0.8,0.9-2,1.4-3.1,1.7
		c-1.5,0.3-3.1,0.4-4.7,0.2c-1.5-0.2-3-0.6-4.1-1.6c-1-0.8-1.4-2.2-1.4-3.4c0-0.2,0.2-0.4,0.4-0.3c0.6,0,1.2,0,1.8,0
		c0.2,0,0.4,0.2,0.4,0.4c0.1,0.7,0.4,1.5,1,1.9c1.2,0.8,2.7,0.7,4.1,0.7c1.1-0.1,2.4-0.1,3.3-0.8c0.5-0.4,0.6-1.1,0.5-1.8
		c-0.1-0.5-0.7-0.8-1.2-0.9c-2.4-0.8-5-0.5-7.4-1.3c-1-0.3-1.9-1-2.3-2c-0.5-1.4-0.3-3.1,0.8-4.2C23.5,17.3,25.1,16.9,26.5,16.8
		L26.5,16.8"/>
</g>
<g transform="translate(300, 0)">
	<path class="st0" d="M-232.5,0h25.5c6.2,0,11.2,5,11.2,11.2v25.5c0,6.2-5,11.2-11.2,11.2h-25.5c-6.2,0-11.2-5-11.2-11.2V11.2
		C-243.8,5-238.7,0-232.5,0z"/>
	
		<linearGradient id="SVGID_1_" gradientUnits="userSpaceOnUse" x1="2459.2825" y1="-2229.1731" x2="2558.3953" y2="-2327.2971" gradientTransform="matrix(0.1875 0 0 -0.1875 -696.125 -409.0625)">
		<stop  offset="0" style="stop-color:#387EB8"/>
		<stop  offset="1" style="stop-color:#366994"/>
	</linearGradient>
	<path class="st2" d="M-219.9,5.4c-9.5,0-8.9,4.1-8.9,4.1l0,4.3h9.1v1.3h-12.7c0,0-6.1-0.7-6.1,8.9c0,9.6,5.3,9.3,5.3,9.3h3.2v-4.5
		c0,0-0.2-5.3,5.2-5.3h9c0,0,5.1,0.1,5.1-4.9v-8.2C-210.7,10.4-209.9,5.4-219.9,5.4z M-224.9,8.3c0.9,0,1.6,0.7,1.6,1.6
		s-0.7,1.6-1.6,1.6c-0.9,0-1.6-0.7-1.6-1.6S-225.8,8.3-224.9,8.3z"/>
	
		<linearGradient id="SVGID_00000131341040000623934570000004613048450204661942_" gradientUnits="userSpaceOnUse" x1="2520.1582" y1="-2292.1687" x2="2626.5942" y2="-2392.7859" gradientTransform="matrix(0.1875 0 0 -0.1875 -696.125 -409.0625)">
		<stop  offset="0" style="stop-color:#FFE052"/>
		<stop  offset="1" style="stop-color:#FFC331"/>
	</linearGradient>
	<path style="fill:url(#SVGID_00000131341040000623934570000004613048450204661942_);" d="M-219.6,42.7c9.5,0,8.9-4.1,8.9-4.1l0-4.3
		h-9.1v-1.3h12.7c0,0,6.1,0.7,6.1-8.9c0-9.6-5.3-9.3-5.3-9.3h-3.2v4.5c0,0,0.2,5.3-5.2,5.3h-9c0,0-5.1-0.1-5.1,4.9v8.2
		C-228.8,37.8-229.6,42.7-219.6,42.7z M-214.6,39.9c-0.9,0-1.6-0.7-1.6-1.6c0-0.9,0.7-1.6,1.6-1.6c0.9,0,1.6,0.7,1.6,1.6
		C-213,39.1-213.7,39.9-214.6,39.9z"/>
</g>
<g transform="translate(600, 0)">
	<path class="st4" d="M-476.2,0h25.5c6.2,0,11.2,5,11.2,11.2v25.5c0,6.2-5,11.2-11.2,11.2h-25.5c-6.2,0-11.2-5-11.2-11.2V11.2
		C-487.5,5-482.5,0-476.2,0z"/>
	<path class="st5" d="M-474.9,40.1l3.7-2.2c0.7,1.3,1.4,2.3,2.9,2.3c1.5,0,2.4-0.6,2.4-2.8V22h4.5v15.4c0,4.7-2.7,6.8-6.7,6.8
		C-471.7,44.2-473.8,42.4-474.9,40.1"/>
	<path class="st5" d="M-458.9,39.6l3.7-2.1c1,1.6,2.2,2.7,4.4,2.7c1.9,0,3.1-0.9,3.1-2.2c0-1.5-1.2-2.1-3.3-3l-1.1-0.5
		c-3.3-1.4-5.4-3.1-5.4-6.8c0-3.4,2.6-6,6.6-6c2.9,0,4.9,1,6.4,3.6l-3.5,2.3c-0.8-1.4-1.6-1.9-2.9-1.9c-1.3,0-2.2,0.8-2.2,1.9
		c0,1.4,0.8,1.9,2.8,2.7l1.1,0.5c3.8,1.6,6,3.3,6,7.1c0,4.1-3.2,6.3-7.5,6.3C-454.9,44.2-457.6,42.2-458.9,39.6"/>
</g>
<g transform="translate(900, 0)">
	<path class="st6" d="M-720,0h25.5c6.2,0,11.2,5,11.2,11.2v25.5c0,6.2-5,11.2-11.2,11.2H-720c-6.2,0-11.2-5-11.2-11.2V11.2
		C-731.2,5-726.2,0-720,0z"/>
	<path class="st7" d="M-720.6,24.2l0,2h3.1h3.1V35v8.9h2.2h2.2V35v-8.9h3.1h3.1v-1.9c0-1.1,0-2-0.1-2c0,0-3.8,0-8.4,0l-8.4,0
		L-720.6,24.2z"/>
	<path class="st7" d="M-692.5,22.1c1.2,0.3,2.1,0.8,3,1.7c0.4,0.5,1.1,1.3,1.2,1.5c0,0.1-2.1,1.5-3.3,2.2c0,0-0.2-0.2-0.4-0.5
		c-0.6-0.9-1.3-1.3-2.3-1.4c-1.5-0.1-2.4,0.7-2.4,1.9c0,0.4,0.1,0.6,0.2,0.9c0.3,0.7,0.9,1.1,2.8,1.9c3.4,1.5,4.9,2.5,5.8,3.8
		c1,1.5,1.2,4,0.6,5.9c-0.8,2-2.7,3.4-5.3,3.8c-0.8,0.1-2.8,0.1-3.7,0c-1.9-0.3-3.8-1.3-4.9-2.5c-0.4-0.5-1.3-1.8-1.2-1.9
		c0,0,0.2-0.2,0.4-0.3c0.2-0.1,1-0.6,1.8-1l1.4-0.8l0.3,0.4c0.4,0.6,1.3,1.5,1.8,1.7c1.5,0.8,3.6,0.7,4.7-0.2
		c0.4-0.4,0.6-0.8,0.6-1.4c0-0.6-0.1-0.8-0.4-1.2c-0.4-0.5-1.1-1-3.3-1.9c-2.5-1.1-3.5-1.7-4.5-2.8c-0.6-0.6-1.1-1.6-1.3-2.4
		c-0.2-0.7-0.2-2.4-0.1-3.1c0.5-2.4,2.3-4.1,4.9-4.6C-695.3,21.9-693.3,21.9-692.5,22.1z"/>
</g>
<g transform="translate(1200, 0)">
	<path class="st0" d="M-963.8,0h25.5C-932,0-927,5-927,11.2v25.5c0,6.2-5,11.2-11.2,11.2h-25.5c-6.2,0-11.2-5-11.2-11.2V11.2
		C-975,5-970,0-963.8,0z"/>
	<path class="st7" d="M-932.2,34.3c-0.5,0.2-1.1,0.2-1.7,0c-0.5-0.2-1-0.6-1.3-1.1c-1.7-2.5-3.6-5-5.4-7.5l-0.8-1
		c-2.1,2.9-4.3,5.6-6.3,8.5c-0.3,0.5-0.7,0.9-1.2,1.1c-0.5,0.2-1.1,0.2-1.6,0l8.1-10.8l-7.5-9.8c0.5-0.2,1.1-0.2,1.7,0
		s1,0.6,1.3,1.1c1.7,2.5,3.7,5,5.6,7.5c1.9-2.6,3.8-5,5.6-7.5c0.3-0.5,0.7-0.9,1.2-1.1c0.5-0.2,1.1-0.2,1.6,0l-2.9,3.9
		c-1.3,1.7-2.6,3.5-3.9,5.1c-0.1,0.1-0.2,0.2-0.3,0.4s-0.1,0.3-0.1,0.4c0,0.1,0,0.3,0.1,0.4s0.1,0.3,0.3,0.4
		C-937.3,27.6-934.8,30.9-932.2,34.3L-932.2,34.3z"/>
	<path class="st7" d="M-969.8,23.3c0.2-1,0.4-2.2,0.7-3.2c1.8-6.4,9.2-9.1,14.2-5.1c3,2.3,3.7,5.6,3.6,9.3H-968
		c-0.3,6.6,4.5,10.6,10.6,8.6c1-0.4,1.9-1,2.6-1.7c0.7-0.8,1.2-1.7,1.4-2.8c0.3-1,0.8-1.2,1.8-0.9c-0.2,1.3-0.6,2.5-1.3,3.6
		c-0.7,1.1-1.6,2-2.7,2.6c-1.8,1-3.9,1.4-5.9,1.1c-2.1-0.3-4-1.2-5.5-2.6c-1.5-1.7-2.4-3.8-2.6-6c0-0.4-0.1-0.7-0.2-1
		C-969.7,24.5-969.8,23.9-969.8,23.3z M-968,22.9h15.1c-0.1-4.8-3.1-8.2-7.2-8.2C-964.6,14.6-967.8,17.9-968,22.9L-968,22.9z"/>
</g>
<g transform="translate(1500, 0)">
	<path class="st0" d="M-1207.5,0h25.5c6.2,0,11.2,5,11.2,11.2v25.5c0,6.2-5,11.2-11.2,11.2h-25.5c-6.2,0-11.2-5-11.2-11.2V11.2
		C-1218.8,5-1213.7,0-1207.5,0z"/>
	<defs>
		<filter id="Adobe_OpacityMaskFilter" filterUnits="userSpaceOnUse" x="-1210.1" y="5.2" width="30.8" height="38.6">
			<feColorMatrix  type="matrix" values="1 0 0 0 0  0 1 0 0 0  0 0 1 0 0  0 0 0 1 0"/>
		</filter>
	</defs>
	
		<mask maskUnits="userSpaceOnUse" x="-1210.1" y="5.2" width="30.8" height="38.6" id="mask0_147_896_00000119812006947693624220000017819382819547142078_">
		<path class="st8" d="M-1184.6,13.6c-0.1-0.3-0.3-0.6-0.6-0.7c-0.3-0.1-0.6,0-0.9,0.2l-4.4,4.5l-3.5-6.6c-0.1-0.3-0.4-0.5-0.7-0.5
			s-0.6,0.2-0.7,0.5l-1.9,3.6l-4.8-8.9c-0.4-0.7-1.5-0.5-1.6,0.3l-4.6,29.5l12.4,6.9c0.8,0.4,1.7,0.4,2.5,0l12.5-6.9L-1184.6,13.6z"
			/>
	</mask>
	<g class="st9">
		
			<linearGradient id="SVGID_00000109730678810787838440000013132265858209942966_" gradientUnits="userSpaceOnUse" x1="1249.1316" y1="-2269.0674" x2="1430.7576" y2="-2365.4644" gradientTransform="matrix(0.1875 0 0 -0.1875 -1446.125 -409.0625)">
			<stop  offset="0" style="stop-color:#FFFFFF;stop-opacity:0.1"/>
			<stop  offset="1" style="stop-color:#FFFFFF;stop-opacity:0"/>
		</linearGradient>
		<path style="fill:url(#SVGID_00000109730678810787838440000013132265858209942966_);" d="M-1184.6,13.6c-0.1-0.3-0.3-0.6-0.6-0.7
			c-0.3-0.1-0.6,0-0.9,0.2l-4.4,4.5l-3.5-6.6c-0.1-0.3-0.4-0.5-0.7-0.5s-0.6,0.2-0.7,0.5l-1.9,3.6l-4.8-8.9
			c-0.4-0.7-1.5-0.5-1.6,0.3l-4.6,29.5l12.4,6.9c0.8,0.4,1.7,0.4,2.5,0l12.5-6.9L-1184.6,13.6z"/>
		<path class="st11" d="M-1208.4,35.5l4.6-29.5c0.1-0.8,1.2-1,1.6-0.3l4.8,8.9l1.9-3.6c0.1-0.3,0.4-0.5,0.8-0.5
			c0.3,0,0.6,0.2,0.8,0.5l12.9,24.5H-1208.4z"/>
		<rect x="-1210.1" y="12.7" class="st12" width="18.6" height="23.6"/>
		<path class="st13" d="M-1192.4,24l-5-9.4l-11,20.9L-1192.4,24z"/>
		<rect x="-1209.3" y="11" class="st12" width="29.9" height="32.8"/>
		<path class="st14" d="M-1181.1,35.5l-3.5-21.9c-0.1-0.3-0.3-0.6-0.6-0.7c-0.3-0.1-0.6,0-0.9,0.2l-22.4,22.3l12.4,6.9
			c0.8,0.4,1.7,0.4,2.5,0L-1181.1,35.5z"/>
		<path class="st15" d="M-1184.6,13.6c-0.1-0.3-0.3-0.6-0.6-0.7c-0.3-0.1-0.6,0-0.9,0.2l-4.4,4.5l-3.5-6.6c-0.1-0.3-0.4-0.5-0.7-0.5
			c-0.3,0-0.6,0.2-0.7,0.5l-1.9,3.6l-4.8-8.9c-0.4-0.7-1.5-0.5-1.6,0.3l-4.6,29.5h0l0,0l0.1,0.1l17.8-17.8l4.4-4.4
			c0.2-0.2,0.6-0.3,0.9-0.2c0.3,0.1,0.5,0.4,0.6,0.7l3.5,21.7l0,0L-1184.6,13.6z M-1208.4,35.5l4.6-29.3c0.1-0.8,1.2-1,1.6-0.3
			l4.8,8.9l1.9-3.6c0.1-0.3,0.4-0.5,0.8-0.5s0.6,0.2,0.8,0.5l3.4,6.5L-1208.4,35.5z"/>
		<path class="st16" d="M-1193.6,42.2c-0.8,0.4-1.7,0.4-2.5,0l-12.4-6.9l0,0.2l12.4,6.9c0.8,0.4,1.7,0.4,2.5,0l12.5-6.9l0-0.2
			L-1193.6,42.2z"/>
		
			<linearGradient id="SVGID_00000037650134380867357890000005173884822067646898_" gradientUnits="userSpaceOnUse" x1="1249.1316" y1="-2269.0674" x2="1430.7576" y2="-2365.4644" gradientTransform="matrix(0.1875 0 0 -0.1875 -1446.125 -409.0625)">
			<stop  offset="0" style="stop-color:#FFFFFF;stop-opacity:0.1"/>
			<stop  offset="1" style="stop-color:#FFFFFF;stop-opacity:0"/>
		</linearGradient>
		<path style="fill:url(#SVGID_00000037650134380867357890000005173884822067646898_);" d="M-1184.6,13.6c-0.1-0.3-0.3-0.6-0.6-0.7
			c-0.3-0.1-0.6,0-0.9,0.2l-4.4,4.5l-3.5-6.6c-0.1-0.3-0.4-0.5-0.7-0.5s-0.6,0.2-0.7,0.5l-1.9,3.6l-4.8-8.9
			c-0.4-0.7-1.5-0.5-1.6,0.3l-4.6,29.5l12.4,6.9c0.8,0.4,1.7,0.4,2.5,0l12.5-6.9L-1184.6,13.6z"/>
	</g>
</g>
<g transform="translate(2700, 0)">
	<path class="st0" d="M-2295,0h25.5c6.2,0,11.2,5,11.2,11.2v25.5c0,6.2-5,11.2-11.2,11.2h-25.5c-6.2,0-11.2-5-11.2-11.2V11.2
		C-2306.2,5-2301.2,0-2295,0z"/>
	<path class="st7" d="M-2283.5,5.3c-0.1,0-0.3,0-0.6,0.1c-5.3,0.5-10.3,3.4-13.5,7.8c-1.8,2.5-2.9,5.2-3.3,8.2
		c-0.2,1-0.2,1.3-0.2,2.7c0,1.4,0,1.7,0.2,2.7c1,7,6,13,12.8,15.2c1.2,0.4,2.5,0.7,4,0.8c0.6,0.1,3,0.1,3.6,0c2.5-0.3,4.7-0.9,6.8-2
		c0.3-0.2,0.4-0.2,0.3-0.2c0,0-1.4-1.9-3.1-4.1l-3-4.1l-3.8-5.6c-2.1-3.1-3.8-5.6-3.8-5.6c0,0,0,2.5,0,5.5c0,5.3,0,5.5-0.1,5.6
		c-0.1,0.2-0.2,0.3-0.3,0.3c-0.1,0.1-0.2,0.1-0.8,0.1h-0.6l-0.2-0.1c-0.1-0.1-0.2-0.2-0.2-0.3l-0.1-0.2l0-7.3l0-7.4l0.1-0.1
		c0.1-0.1,0.2-0.2,0.3-0.2c0.2-0.1,0.2-0.1,0.8-0.1c0.7,0,0.9,0,1.1,0.2c0.1,0.1,2.1,3.1,4.5,6.8c2.4,3.7,5.8,8.7,7.4,11.2l3,4.5
		l0.2-0.1c1.3-0.9,2.7-2.1,3.9-3.4c2.4-2.7,3.9-6,4.4-9.6c0.2-1,0.2-1.3,0.2-2.7c0-1.4,0-1.7-0.2-2.7c-1-7-6-13-12.8-15.2
		c-1.2-0.4-2.5-0.7-3.9-0.8C-2280.8,5.3-2283.2,5.2-2283.5,5.3z M-2275.8,16.6c0.2,0.1,0.3,0.3,0.4,0.4c0,0.1,0,2.1,0,6.7l0,6.6
		l-1.2-1.8l-1.2-1.8V22c0-3.1,0-4.8,0-4.9c0.1-0.2,0.2-0.4,0.4-0.5c0.2-0.1,0.2-0.1,0.8-0.1C-2276,16.5-2275.9,16.5-2275.8,16.6z"/>
</g>
<g transform="translate(1800, 0)">
	<path class="st18" d="M-1451.2,0h25.5c6.2,0,11.2,5,11.2,11.2v25.5c0,6.2-5,11.2-11.2,11.2h-25.5c-6.2,0-11.2-5-11.2-11.2V11.2
		C-1462.5,5-1457.5,0-1451.2,0z"/>
	<path class="st19" d="M-1430.4,20.2c-2-8.7-6.1-11-7.1-12.7c-0.4-0.7-0.8-1.5-1.1-2.2c-0.1,0.8-0.2,1.3-0.8,1.8
		c-1.3,1.2-6.9,5.8-7.4,15.7c-0.4,9.2,6.8,14.9,7.7,15.5c0.7,0.4,1.6,0,2.1-0.3C-1433.6,35.6-1428.9,29.2-1430.4,20.2"/>
	<path class="st20" d="M-1438.4,33.4c-0.2,2.3-0.3,3.6-0.8,4.9c0,0,0.3,2.2,0.5,4.5h0.8c0.2-1.6,0.5-3.2,0.8-4.8
		C-1438.1,37.4-1438.4,35.4-1438.4,33.4z"/>
	<path class="st21" d="M-1437.1,37.9c-1-0.5-1.3-2.6-1.3-4.6c0.2-3.3,0.3-6.6,0.2-9.9c-0.1-1.7,0-16-0.4-18.1
		c0.3,0.7,0.7,1.4,1.1,2.1c1.1,1.6,5.2,4,7.1,12.7C-1428.9,29.2-1433.6,35.5-1437.1,37.9z"/>
</g>
</svg>
