<?xml version="1.0" encoding="utf-8"?>
<!-- Generator: Adobe Illustrator 26.0.1, SVG Export Plug-In . SVG Version: 6.00 Build 0)  -->
<svg version="1.1" id="Layer_1" xmlns="http://www.w3.org/2000/svg" xmlns:xlink="http://www.w3.org/1999/xlink" x="0px" y="0px"
	 viewBox="0 0 441.8 48" style="enable-background:new 0 0 441.8 48;" xml:space="preserve">
<style type="text/css">
	.st0{fill:#E14E1D;}
	.st1{fill:#FFFFFF;}
	.st2{fill:#EBEBEB;}
	.st3{fill:#0277BD;}
	.st4{fill:#242938;}
	.st5{fill:#2489CA;}
	.st6{fill:#1070B3;}
	.st7{fill:#0877B9;}
	.st8{fill:#3C99D4;}
	.st9{clip-path:url(#SVGID_00000033346866125998679260000005567526018954561665_);}
	.st10{fill:#0ACF83;}
	.st11{fill:#A259FF;}
	.st12{fill:#F24E1E;}
	.st13{fill:#FF7262;}
	.st14{fill:#1ABCFE;}
	.st15{fill-rule:evenodd;clip-rule:evenodd;fill:url(#SVGID_00000178162731283711707190000004584105707267039678_);}
	.st16{fill:#F03C2E;}
	.st17{clip-path:url(#SVGID_00000104675584790915227810000010833110710757215415_);}
	.st18{fill:#00D8FF;}
	.st19{fill:none;stroke:#00D8FF;stroke-width:1.6708;stroke-miterlimit:10;}
</style>
<g transform="translate(900, 0)">
	<path class="st0" d="M-832.5,0h25.5c6.2,0,11.2,5,11.2,11.2v25.5c0,6.2-5,11.2-11.2,11.2h-25.5c-6.2,0-11.2-5-11.2-11.2V11.2
		C-843.8,5-838.7,0-832.5,0z"/>
	<path class="st1" d="M-834.8,7.1l1.6,18.1h20.8l-0.7,7.8l-6.7,1.8l-6.7-1.8l-0.4-5h-6l0.9,9.6l12.3,3.4l12.3-3.4l1.6-18.4h-21.8
		l-0.5-6.1h22.9h0l0.5-6H-834.8z"/>
	<path class="st2" d="M-819.8,7.1h-15l1.6,18.1h13.4v-6h-7.9l-0.5-6.1h8.5V7.1z"/>
	<path class="st2" d="M-819.8,34.8L-819.8,34.8l-6.7-1.8l-0.4-5h-6l0.9,9.6l12.3,3.4l0,0V34.8z"/>
</g>
<g transform="translate(1200, 0)">
	<path class="st3" d="M-1076.2,0h25.5c6.2,0,11.2,5,11.2,11.2v25.5c0,6.2-5,11.2-11.2,11.2h-25.5c-6.2,0-11.2-5-11.2-11.2V11.2
		C-1087.5,5-1082.5,0-1076.2,0z"/>
	<path class="st2" d="M-1077.4,19.2l0.5,6h13.4v-6H-1077.4z"/>
	<path class="st2" d="M-1063.5,7.1L-1063.5,7.1h-15l0.5,6h14.5V7.1z"/>
	<path class="st2" d="M-1063.5,41v-6.2l0,0l-6.7-1.8l-0.4-4.8h-3.2h-2.8l0.8,9.4L-1063.5,41L-1063.5,41z"/>
	<path class="st1" d="M-1056.1,25.2l-0.7,7.8l-6.7,1.8V41l12.3-3.4l0.1-1l1.4-15.8l0.1-1.6l1.1-12.1h-15v6h8.4l-0.5,6.1h-7.9v6
		H-1056.1z"/>
</g>
<g transform="translate(1500, 0)">
	<path class="st4" d="M-1320,0h25.5c6.2,0,11.2,5,11.2,11.2v25.5c0,6.2-5,11.2-11.2,11.2h-25.5c-6.2,0-11.2-5-11.2-11.2V11.2
		C-1331.2,5-1326.2,0-1320,0z"/>
	<path class="st5" d="M-1324.9,18.8c0,0-0.9-0.6,0.2-1.5l2.5-2.2c0,0,0.7-0.7,1.5-0.1l22.9,17.3v8.3c0,0,0,1.3-1.7,1.2L-1324.9,18.8
		z"/>
	<path class="st6" d="M-1319,24.1l-5.9,5.4c0,0-0.6,0.5,0,1.3l2.7,2.5c0,0,0.7,0.7,1.6-0.1l6.3-4.7L-1319,24.1z"/>
	<path class="st7" d="M-1308.7,24.2l10.8-8.3l-0.1-8.3c0,0-0.5-1.8-2-0.9l-14.4,13.1L-1308.7,24.2z"/>
	<path class="st8" d="M-1299.6,41.8c0.6,0.6,1.4,0.4,1.4,0.4l8.4-4.2c1.1-0.7,0.9-1.6,0.9-1.6V11.6c0-1.1-1.1-1.5-1.1-1.5l-7.3-3.5
		c-1.6-1-2.6,0.2-2.6,0.2s1.3-1,2,0.9v32.8c0,0.2,0,0.4-0.1,0.6C-1298.2,41.5-1298.7,41.9-1299.6,41.8L-1299.6,41.8z"/>
</g>
<g transform="translate(1800, 0)">
	<path class="st4" d="M-1563.8,0h25.5c6.2,0,11.2,5,11.2,11.2v25.5c0,6.2-5,11.2-11.2,11.2h-25.5c-6.2,0-11.2-5-11.2-11.2V11.2
		C-1575,5-1570,0-1563.8,0z"/>
	<path class="st1" d="M-1551,5.6c-10.4,0-18.8,8.4-18.8,18.8c0,8.3,5.4,15.3,12.8,17.8c0.9,0.2,1.3-0.4,1.3-0.9c0-0.4,0-1.9,0-3.5
		c-5.2,1.1-6.3-2.2-6.3-2.2c-0.9-2.2-2.1-2.7-2.1-2.7c-1.7-1.2,0.1-1.1,0.1-1.1c1.9,0.1,2.9,1.9,2.9,1.9c1.7,2.9,4.4,2,5.5,1.6
		c0.2-1.2,0.7-2,1.2-2.5c-4.2-0.5-8.5-2.1-8.5-9.3c0-2,0.7-3.7,1.9-5c-0.2-0.5-0.8-2.4,0.2-5c0,0,1.6-0.5,5.2,1.9
		c1.5-0.4,3.1-0.6,4.7-0.6c1.6,0,3.2,0.2,4.7,0.6c3.6-2.4,5.2-1.9,5.2-1.9c1,2.6,0.4,4.5,0.2,5c1.2,1.3,1.9,3,1.9,5
		c0,7.2-4.4,8.8-8.6,9.3c0.7,0.6,1.3,1.7,1.3,3.5c0,2.5,0,4.5,0,5.1c0,0.5,0.3,1.1,1.3,0.9c7.4-2.5,12.8-9.5,12.8-17.8
		C-1532.2,14-1540.6,5.6-1551,5.6z M-1562.7,32.3c0,0.1-0.2,0.1-0.3,0.1c-0.1-0.1-0.2-0.2-0.2-0.3c0-0.1,0.2-0.1,0.3-0.1
		C-1562.8,32.1-1562.7,32.2-1562.7,32.3z M-1561.8,33.2c-0.1,0.1-0.3,0-0.4-0.1c-0.1-0.1-0.1-0.3-0.1-0.4c0.1-0.1,0.3,0,0.4,0.1
		C-1561.7,32.9-1561.7,33.1-1561.8,33.2z M-1561.2,34.2c-0.1,0.1-0.3,0-0.4-0.2c-0.1-0.2-0.1-0.4,0-0.4c0.1-0.1,0.3,0,0.4,0.2
		C-1561.1,33.9-1561.1,34.1-1561.2,34.2z M-1560.1,35.4c-0.1,0.1-0.3,0.1-0.5-0.1c-0.2-0.2-0.2-0.4-0.1-0.5c0.1-0.1,0.3-0.1,0.5,0.1
		C-1560,35.1-1560,35.3-1560.1,35.4z M-1558.7,35.8c0,0.1-0.3,0.2-0.5,0.2c-0.2-0.1-0.4-0.2-0.3-0.4c0-0.1,0.3-0.2,0.5-0.2
		C-1558.8,35.5-1558.7,35.7-1558.7,35.8z M-1557.1,36c0,0.2-0.2,0.3-0.4,0.3c-0.2,0-0.4-0.1-0.4-0.3c0-0.2,0.2-0.3,0.4-0.3
		C-1557.3,35.7-1557.1,35.9-1557.1,36z M-1555.6,36c0,0.2-0.1,0.3-0.3,0.3c-0.2,0-0.4-0.1-0.4-0.2c0-0.2,0.1-0.3,0.3-0.3
		C-1555.8,35.7-1555.6,35.8-1555.6,36z"/>
</g>
<g transform="translate(2100, 0)">
	<path class="st4" d="M-1807.5,0h25.5c6.2,0,11.2,5,11.2,11.2v25.5c0,6.2-5,11.2-11.2,11.2h-25.5c-6.2,0-11.2-5-11.2-11.2V11.2
		C-1818.8,5-1813.7,0-1807.5,0z"/>
	<g>
		<defs>
			<rect id="SVGID_1_" x="-1807.3" y="5.2" width="25" height="37.5"/>
		</defs>
		<clipPath id="SVGID_00000008833542413465911080000016704734602055095686_">
			<use xlink:href="#SVGID_1_"  style="overflow:visible;"/>
		</clipPath>
		<g style="clip-path:url(#SVGID_00000008833542413465911080000016704734602055095686_);">
			<path class="st10" d="M-1801.1,42.8c3.4,0,6.2-2.8,6.2-6.2v-6.3h-6.2c-3.5,0-6.3,2.8-6.3,6.3C-1807.3,40-1804.5,42.8-1801.1,42.8
				z"/>
			<path class="st11" d="M-1807.3,24c0-3.5,2.8-6.2,6.3-6.2h6.2v12.5h-6.2C-1804.5,30.2-1807.3,27.4-1807.3,24z"/>
			<path class="st12" d="M-1807.3,11.5c0-3.5,2.8-6.2,6.3-6.2h6.2v12.5h-6.2C-1804.5,17.8-1807.3,14.9-1807.3,11.5z"/>
			<path class="st13" d="M-1794.8,5.2h6.2c3.4,0,6.3,2.8,6.3,6.2s-2.8,6.3-6.3,6.3h-6.2V5.2z"/>
			<path class="st14" d="M-1782.3,24c0,3.4-2.8,6.2-6.3,6.2s-6.2-2.8-6.2-6.2s2.8-6.2,6.2-6.2S-1782.3,20.5-1782.3,24z"/>
		</g>
	</g>
</g>
<g transform="translate(2400, 0)">
	<path class="st4" d="M-2051.2,0h25.5c6.2,0,11.2,5,11.2,11.2v25.5c0,6.2-5,11.2-11.2,11.2h-25.5c-6.2,0-11.2-5-11.2-11.2V11.2
		C-2062.5,5-2057.5,0-2051.2,0z"/>
	
		<linearGradient id="SVGID_00000024713833500937373500000017811407278731567239_" gradientUnits="userSpaceOnUse" x1="-76.6504" y1="-2253.6987" x2="0.3496" y2="-2365.1987" gradientTransform="matrix(0.1875 0 0 -0.1875 -2031.375 -409.0625)">
		<stop  offset="0" style="stop-color:#32B1C1"/>
		<stop  offset="1" style="stop-color:#14C6B7"/>
	</linearGradient>
	<path style="fill-rule:evenodd;clip-rule:evenodd;fill:url(#SVGID_00000024713833500937373500000017811407278731567239_);" d="
		M-2046.9,20.6c1.1-4.5,3.9-6.8,8.4-6.8c6.8,0,7.6,5.1,11,5.9c2.3,0.6,4.2-0.3,5.9-2.5c-1.1,4.5-3.9,6.8-8.4,6.8
		c-6.8,0-7.6-5.1-11-5.9C-2043.3,17.5-2045.2,18.4-2046.9,20.6z M-2055.4,30.8c1.1-4.5,3.9-6.8,8.4-6.8c6.8,0,7.6,5.1,11,5.9
		c2.3,0.6,4.2-0.3,5.9-2.5c-1.1,4.5-3.9,6.8-8.4,6.8c-6.8,0-7.6-5.1-11-5.9C-2051.7,27.7-2053.7,28.5-2055.4,30.8z"/>
</g>
<g transform="translate(2700, 0)">
	<path class="st16" d="M-2295,0h25.5c6.2,0,11.2,5,11.2,11.2v25.5c0,6.2-5,11.2-11.2,11.2h-25.5c-6.2,0-11.2-5-11.2-11.2V11.2
		C-2306.2,5-2301.2,0-2295,0z"/>
	<g>
		<defs>
			<rect id="SVGID_00000008116173556382538600000012139472627237329817_" x="-2301" y="5.2" width="37.5" height="37.5"/>
		</defs>
		<clipPath id="SVGID_00000023992771165816538620000011427221539719672733_">
			<use xlink:href="#SVGID_00000008116173556382538600000012139472627237329817_"  style="overflow:visible;"/>
		</clipPath>
		<g style="clip-path:url(#SVGID_00000023992771165816538620000011427221539719672733_);">
			<path class="st1" d="M-2264.2,22.3L-2280.6,6c-0.2-0.2-0.5-0.4-0.8-0.5c-0.3-0.1-0.6-0.2-0.9-0.2c-0.3,0-0.6,0.1-0.9,0.2
				c-0.3,0.1-0.6,0.3-0.8,0.5l-3.4,3.4l4.3,4.3c1-0.4,2.2-0.1,3,0.7c0.4,0.4,0.6,0.9,0.8,1.4c0.1,0.5,0.1,1.1-0.1,1.6l4.2,4.2
				c1-0.3,2.2-0.1,3,0.7c0.3,0.3,0.5,0.6,0.6,0.9c0.1,0.3,0.2,0.7,0.2,1.1c0,0.4-0.1,0.8-0.2,1.1c-0.1,0.3-0.4,0.7-0.6,0.9
				c-0.3,0.3-0.6,0.5-0.9,0.6c-0.3,0.1-0.7,0.2-1.1,0.2c-0.4,0-0.8-0.1-1.1-0.2c-0.3-0.1-0.7-0.4-0.9-0.6c-0.8-0.8-1.1-2.1-0.6-3.1
				l-3.9-3.9v10.2c0.3,0.1,0.5,0.3,0.8,0.5c0.3,0.3,0.5,0.6,0.6,0.9c0.1,0.3,0.2,0.7,0.2,1.1c0,0.4-0.1,0.8-0.2,1.1
				c-0.1,0.3-0.4,0.7-0.6,0.9c-0.3,0.3-0.6,0.5-0.9,0.6c-0.3,0.1-0.7,0.2-1.1,0.2c-0.4,0-0.8-0.1-1.1-0.2c-0.3-0.1-0.7-0.4-0.9-0.6
				c-0.3-0.3-0.5-0.6-0.6-0.9c-0.1-0.3-0.2-0.7-0.2-1.1c0-0.4,0.1-0.8,0.2-1.1c0.1-0.3,0.4-0.7,0.6-0.9c0.3-0.3,0.6-0.5,0.9-0.6V19
				c-0.3-0.1-0.7-0.3-0.9-0.6c-0.4-0.4-0.7-0.9-0.8-1.5c-0.1-0.6-0.1-1.1,0.2-1.7l-4.3-4.3l-11.2,11.2c-0.2,0.2-0.4,0.5-0.5,0.8
				s-0.2,0.6-0.2,0.9s0.1,0.6,0.2,0.9c0.1,0.3,0.3,0.6,0.5,0.8l16.4,16.4c0.2,0.2,0.5,0.4,0.8,0.5c0.3,0.1,0.6,0.2,0.9,0.2
				c0.3,0,0.6-0.1,0.9-0.2c0.3-0.1,0.6-0.3,0.8-0.5l16.3-16.3c0.2-0.2,0.4-0.5,0.5-0.8c0.1-0.3,0.2-0.6,0.2-0.9
				c0-0.3-0.1-0.6-0.2-0.9C-2263.8,22.8-2264,22.6-2264.2,22.3"/>
		</g>
	</g>
</g>
<g transform="translate(0, 0)">
	<path class="st4" d="M11.2,0h25.5C43,0,48,5,48,11.2v25.5C48,43,43,48,36.8,48H11.2C5,48,0,43,0,36.8V11.2C0,5,5,0,11.2,0z"/>
	<path class="st18" d="M24,27.6c1.9,0,3.5-1.6,3.5-3.5s-1.6-3.5-3.5-3.5c-1.9,0-3.5,1.6-3.5,3.5S22.1,27.6,24,27.6z"/>
	<path class="st19" d="M24,16.9c4.7,0,9.1,0.7,12.3,1.8c4,1.4,6.4,3.4,6.4,5.3c0,2-2.6,4.1-6.8,5.6c-3.2,1.1-7.5,1.6-11.9,1.6
		c-4.6,0-8.9-0.5-12.2-1.6c-4.1-1.4-6.6-3.6-6.6-5.5c0-1.9,2.3-3.9,6.2-5.3C14.8,17.6,19.3,16.9,24,16.9L24,16.9z"/>
	<path class="st19" d="M17.8,20.5c2.3-4.1,5.1-7.5,7.7-9.8c3.2-2.8,6.2-3.8,7.8-2.9c1.7,1,2.3,4.3,1.4,8.7
		c-0.7,3.3-2.3,7.3-4.5,11.1c-2.3,4-4.9,7.4-7.5,9.7c-3.3,2.9-6.4,3.9-8.1,2.9c-1.6-0.9-2.2-4-1.5-8C13.8,28.8,15.4,24.6,17.8,20.5
		L17.8,20.5z"/>
	<path class="st19" d="M17.8,27.7c-2.4-4.1-4-8.2-4.6-11.6C12.4,12,13,8.8,14.6,7.9c1.7-1,4.9,0.2,8.2,3.1c2.5,2.3,5.1,5.6,7.4,9.5
		c2.3,4,4,8,4.7,11.3c0.8,4.3,0.2,7.5-1.5,8.5c-1.6,0.9-4.5-0.1-7.7-2.8C23,35.3,20.2,31.8,17.8,27.7z"/>
</g>
</svg>
